<svg width="138" height="138" viewBox="0 0 138 138" fill="none" xmlns="http://www.w3.org/2000/svg">
<circle cx="69" cy="69" r="68.5" fill="#44A16F" stroke="#69AC80"/>
<g clip-path="url(#clip0_1_82)">
<path d="M103.908 91.9516H104.193H105.386H105.467H106.47H108.385H421.651C421.588 93.3059 421.517 94.6559 421.439 96.0016C421.429 96.1704 421.419 96.3391 421.409 96.5078C415.061 203.303 361.88 283.001 307.55 331.897C300.093 338.608 292.615 344.739 285.233 350.28C281.904 352.779 278.556 355.197 275.19 357.537C272.295 359.55 269.387 361.505 266.467 363.403C234.639 384.091 201.48 397.98 168.874 406.406C146.868 412.094 125.114 415.292 104.193 416.413C101.62 416.551 99.0606 416.657 96.5145 416.733C96.2774 416.74 96.0404 416.747 95.8036 416.753C92.8459 416.835 89.9068 416.875 86.9879 416.875C84.0658 416.875 81.1268 416.835 78.1723 416.754C37.7756 415.645 -5.49707 406.859 -47.7143 387.868L78.1723 146.261L86.9879 129.342L95.8036 112.423L96.5145 111.058L98.7067 106.851L101.855 100.808L103.766 97.1406M103.908 91.9516L104.193 91.9249L105.308 91.8205L105.379 91.8139L106.601 91.6995L108.792 91.4944L109.316 91.4453L282.353 75.2453L283.705 75.1187L348.594 69.0437L421.812 62.189C420.038 12.3249 408.092 -31.6858 390.513 -69.5484C374.319 -104.428 353.345 -134.089 331.139 -158.304C315.88 -174.943 300.04 -189.01 284.769 -200.43C281.973 -202.521 279.162 -204.556 276.338 -206.536L158.718 -8.32471L112.807 69.0437L112.481 69.5928C113.179 71.3492 113.56 73.2041 113.576 75.1187C113.577 75.1609 113.577 75.2031 113.577 75.2453C113.577 76.715 113.361 78.1402 112.954 79.5066C112.368 81.4768 111.386 83.3249 110.088 85.0077C108.564 86.9822 106.604 88.7294 104.335 90.1797C104.285 90.2091 104.238 90.2419 104.193 90.2777C103.85 90.5504 103.657 90.9979 103.908 91.4453V91.9516ZM103.908 91.9516C103.952 92.4151 104.061 92.9611 104.193 93.4997C104.36 94.1845 104.562 94.8572 104.708 95.3332C104.727 95.3941 104.744 95.4519 104.761 95.506C104.812 95.6728 104.853 95.8051 104.878 95.8918C104.894 95.9506 104.904 95.9884 104.904 96.0016C104.904 96.0648 104.939 96.1598 104.975 96.2547C105.01 96.3496 105.046 96.4445 105.046 96.5078C105.046 96.8875 104.619 97.2672 104.193 97.2672C103.908 97.2672 103.908 97.2672 103.766 97.1406M103.766 97.1406L102.552 96.5078L101.58 96.0016L98.5799 94.4384L97.4231 95.0882L97.3162 95.1483L96.9834 95.3352L96.5145 95.5986L96.1226 95.8188L95.8036 95.9979L95.7971 96.0016L94.8959 96.5078L86.9879 100.95L78.1723 105.902L-194.864 259.274C-171.77 295.673 -143.953 324.571 -117.371 345.579L78.1723 125.894L80.8696 122.864L85.8892 117.224L86.9879 115.99L95.8036 106.086L96.5145 105.287L97.9601 103.663L101.178 100.048L103.766 97.1406ZM433.935 246.845C458.609 199.168 475.077 141.965 475.077 75.2453C475.077 -69.4762 396.029 -172.875 323.033 -227.743C249.818 -282.774 165.168 -306.125 86.9879 -306.125C9.87571 -306.125 -74.9287 -283.394 -148.795 -227.949C-223.02 -172.235 -300.959 -68.4938 -300.959 75.1187C-300.959 220.273 -221.467 323.802 -148.224 378.574C-86.9183 424.42 -17.7874 448.029 48.6486 454.496C66.9519 457.345 80.7122 458.07 87.1106 458.369C93.7095 458.678 98.8838 458.735 100.849 458.752C102.029 458.763 102.965 458.766 103.429 458.766C103.682 458.767 103.885 458.767 104 458.767L104.139 458.767H104.193C157.114 458.767 204.615 447.479 245.666 429.998L267.462 424.892L281.607 412.302C305.761 398.72 327.031 383.165 345.131 367.055C374.14 341.234 409.018 300.965 433.935 246.845ZM72.1051 91.4453H-247.562C-247.801 86.1129 -247.923 80.7128 -247.923 75.2453C-247.923 75.2031 -247.923 75.1609 -247.923 75.1187C-247.922 73.0837 -247.905 71.0587 -247.872 69.0437C-247.056 19.9777 -236.601 -23.1271 -220.643 -60.3362C-197.132 -108.628 -165.882 -145.28 -139.058 -169.847L67.2509 61.932C64.8159 63.9669 62.9437 66.3825 61.8033 69.0437C60.9828 70.9584 60.5411 73.0002 60.5411 75.1187C60.5411 75.161 60.5413 75.2032 60.5416 75.2453C60.5982 81.9705 65.1601 87.9103 72.1051 91.4453ZM95.8036 72.2078C94.5595 72.2078 93.482 71.664 92.8488 70.8236L92.5066 70.2469C92.3401 69.8775 92.2489 69.4717 92.2489 69.0437C92.2489 67.2719 93.813 65.8797 95.8036 65.8797C96.0477 65.8797 96.2853 65.9006 96.5145 65.9406C98.1543 66.2268 99.3583 67.4891 99.3583 69.0437C99.3583 70.6105 98.2465 71.8804 96.5145 72.1534C96.2878 72.1892 96.0504 72.2078 95.8036 72.2078ZM86.9879 55.375C86.8749 55.375 86.7621 55.3755 86.6494 55.3765L78.1723 19.1868L14.4284 -252.945C34.5387 -258.119 55.8155 -261.719 78.1723 -263.311C81.0925 -263.519 84.0311 -263.693 86.9879 -263.831C89.9088 -263.968 92.8474 -264.07 95.8036 -264.138C96.0404 -264.143 96.2774 -264.148 96.5145 -264.153C99.0609 -264.206 101.62 -264.233 104.193 -264.233C100.672 -264.233 110.544 -264.326 120.941 -263.839C124.379 -263.678 129.975 -263.393 137.284 -262.714C177.893 -256.371 220.055 -242.005 260.143 -217.211L111.641 67.8005C110.018 64.8059 107.445 62.1656 104.193 60.0977C101.931 58.6596 99.3413 57.4984 96.5145 56.6872C96.2792 56.6197 96.0422 56.5546 95.8036 56.4919C93.0499 55.769 90.0844 55.375 86.9879 55.375Z" fill="white" stroke="#69AC80" stroke-width="723"/>
<path d="M85.5672 52.9969C86.1359 52.9969 86.5625 52.9969 87.4156 52.9969C84.8562 41.7328 71.6328 33 55.85 33C38.3609 33.1266 24 43.6313 24 56.6672C24 64.0078 28.2656 70.2094 35.0906 74.5125C35.6594 74.8922 35.9437 75.3984 35.9437 76.1578C35.9437 76.2844 35.8016 76.5375 35.8016 76.6641C35.2328 78.4359 34.3797 81.3469 34.3797 81.4734C33.9531 81.7266 33.9531 81.8531 33.9531 82.2328C33.9531 82.7391 34.3797 83.1187 35.0906 83.1187C35.2328 83.1187 35.5172 82.9922 35.6594 82.9922L42.6266 79.4484C43.0531 79.3219 43.7641 79.0688 44.475 79.0688C44.6172 79.0688 45.0438 79.1953 45.4703 79.1953C48.7406 80.0812 52.2953 80.4609 55.85 80.4609C56.4187 80.4609 56.8453 80.4609 57.6984 80.4609C57.1297 78.6891 56.7031 76.6641 56.7031 74.7656C56.7031 62.3625 69.5 52.9969 85.5672 52.9969ZM66.5141 45.2766C68.9312 45.2766 70.7797 47.0484 70.7797 49.0734C70.7797 51.0984 68.7891 52.8703 66.5141 52.8703C64.2391 52.8703 62.2484 51.0984 62.2484 49.0734C62.2484 47.0484 64.0969 45.2766 66.5141 45.2766ZM45.1859 52.9969C42.7687 52.9969 40.9203 51.225 40.9203 49.2C40.9203 47.175 42.9109 45.4031 45.1859 45.4031C47.4609 45.4031 49.4516 47.175 49.4516 49.2C49.4516 51.225 47.6031 52.9969 45.1859 52.9969Z" fill="white"/>
<ellipse cx="56.5" cy="48.5" rx="18.5" ry="5.5" fill="white"/>
<ellipse cx="87.5" cy="69.5" rx="18.5" ry="5.5" fill="white"/>
</g>
<defs>
<clipPath id="clip0_1_82">
<rect width="91" height="81" fill="white" transform="translate(24 25)"/>
</clipPath>
</defs>
</svg>
